<svg style="width: 100%; height: 100%;" viewBox="0 0 1024 720">
  <g
     inkscape:groupmode="layer"
     id="layer12"
     inkscape:label="arc1"
     style="display:inline">
    <path data-segment data-segment-alias="arc1" data-segment-color="blue"
       style="fill:blue;fill-rule:evenodd;stroke:#000000;stroke-width:5;stroke-linecap:butt;stroke-linejoin:miter;stroke-miterlimit:4;stroke-dasharray:none;stroke-opacity:1"
       d="M 268.97349,563.06656 C 180.26771,403.19127 223.77886,259.76052 383.11839,130.736 316.72135,251.5239 322.31321,368.54379 403.89134,481.58644 319.1222,457.42677 280.5562,492.84848 268.97349,563.06656 Z"
       id="path4441"
       inkscape:connector-curvature="0"
       sodipodi:nodetypes="cccc" />
  </g>
  <g
     inkscape:groupmode="layer"
     id="layer13"
     inkscape:label="arc2"
     style="display:inline">
    <path data-segment data-segment-alias="arc2" data-segment-color="green"
       style="fill:green;fill-rule:evenodd;stroke:#000000;stroke-width:5;stroke-linecap:butt;stroke-linejoin:miter;stroke-miterlimit:4;stroke-dasharray:none;stroke-opacity:1"
       d="m 380.86375,130.8724 c -75.15226,152.06258 -42.38368,258.25809 23.90217,350.20856 10.62059,-63.23063 52.39707,-112.00455 136.43432,-78.85638 z"
       id="path4463"
       inkscape:connector-curvature="0"
       sodipodi:nodetypes="cccc" />
  </g>
  <g
     inkscape:groupmode="layer"
     id="layer14"
     inkscape:label="arc3"
     style="display:inline">
    <path data-segment data-segment-alias="arc3" data-segment-color="yellow"
       style="fill:yellow;fill-rule:evenodd;stroke:#000000;stroke-width:5;stroke-linecap:butt;stroke-linejoin:miter;stroke-miterlimit:4;stroke-dasharray:none;stroke-opacity:1"
       d="m 384.42112,127.95817 c 169.27646,10.78755 244.93715,92.19225 291.52334,195.52873 -60.09078,-22.36082 -123.2073,-10.50864 -136.43432,78.85638 z"
       id="path4463-5"
       inkscape:connector-curvature="0"
       sodipodi:nodetypes="cccc" />
  </g>
  <g
     inkscape:groupmode="layer"
     id="layer15"
     inkscape:label="arc4"
     style="display:inline">
    <path data-segment data-segment-alias="arc4" data-segment-color="orange"
       style="fill:orange;fill-rule:evenodd;stroke:#000000;stroke-width:5;stroke-linecap:butt;stroke-linejoin:miter;stroke-miterlimit:4;stroke-dasharray:none;stroke-opacity:1"
       d="M 814.76984,246.74877 C 720.51855,90.07868 574.51621,56.183041 383.17745,129.84372 c 137.80659,2.7622 236.41268,66.02166 293.64159,193.13769 21.38087,-85.51231 71.32512,-101.2478 137.9508,-76.23264 z"
       id="path4441-4"
       inkscape:connector-curvature="0"
       sodipodi:nodetypes="cccc" />
  </g>
  <g
     inkscape:groupmode="layer"
     id="layer16"
     inkscape:label="bar"
     style="display:inline">
    <path
       id="path4490"
       style="fill: none;fill-rule:evenodd;stroke:#000000;stroke-width:7;stroke-linecap:butt;stroke-linejoin:round;stroke-miterlimit:4;stroke-dasharray:none;stroke-opacity:1"
       d="m 636.46703,572.52525 c 53.21638,46.07984 98.47871,-11.86346 80.82022,-50.01255 M 366.41061,102.42904 640.20592,576.13932"
       inkscape:connector-curvature="0" />
  </g>
</svg>
