<svg style="width: 100%; height: 100%;" viewBox="0 0 1024 720">
    <path data-segment="1" data-segment-alias="star" data-segment-color="yellow"
     style="opacity:1;fill:yellow;fill-opacity:1;stroke:#000000;stroke-width:4.63499594;stroke-linecap:round;stroke-linejoin:round;stroke-miterlimit:4;stroke-dasharray:none;stroke-dashoffset:0;stroke-opacity:1"
     d="M 708.58306,663.70134 C 692.35421,675.37278 531.0957,562.13251 511.10599,562.03582 c -19.98971,-0.0967 -182.33614,111.57829 -198.45133,99.7504 -16.11518,-11.82788 41.7511,-200.187 35.66589,-219.22822 -6.0852,-19.04123 -162.46222,-138.9324 -156.1931,-157.91386 6.26911,-18.98147 203.29095,-22.15354 219.5198,-33.82497 16.22884,-11.67143 81.92896,-197.443232 101.91868,-197.346541 19.98971,0.09669 83.88962,186.495361 100.0048,198.323241 16.11518,11.82789 213.09712,16.90577 219.18232,35.94699 6.0852,19.04123 -151.44431,137.41402 -157.71343,156.39548 -6.26912,18.98147 49.77229,207.89157 33.54344,219.563 z" 
    />
</svg>